# xmcd
#
# Track frame offsets:
#	150
#	17217
#	30594
#	43656
#	57512
#	67792
#	83025
#	103727
#	116847
#	130169
#	143003
#
# Disc length: 2129
#
# Revision: 1
# Processed by: cddbd v1.5.1PL0 Copyright (c) Steve Scherf et al.
# Submitted via: ExactAudioCopy v0.95a5
# Normalized: r0:TDELIM( - ),TSWAP
#
DISCID=92084f0b
DTITLE=Various Artist - Cowboy Up 2
DYEAR=1998
DGENRE=Country
TTITLE0=Joe Diffie - Honky Tonk Attitude
TTITLE1=Brooks and Dunn - Hard Workin' Man
TTITLE2=Terry Clark - Hold Your Horses
TTITLE3=Vince Gill - What The Cowgirls Do
TTITLE4=Rhett Atkins - Every Cowboy's Dream
TTITLE5=Matraca Berg - Back in the Saddle
TTITLE6=Chris Ledoux - Take Me To The Rodeo
TTITLE7=Deryl Dodd - 13 MWZ
TTITLE8=Toby Keith - She Ran Away With A Rodeo Clown
TTITLE9=Mark Chestnut - Blame It On Texas
TTITLE10=Farmers Daughter - Callin' All YOu Cowboys
EXTD=
EXTT0=
EXTT1=
EXTT2=
EXTT3=
EXTT4=
EXTT5=
EXTT6=
EXTT7=
EXTT8=
EXTT9=
EXTT10=
PLAYORDER=
